<svg width="24" height="24" viewBox="0 0 24 24" fill="none" xmlns="http://www.w3.org/2000/svg">
<g clip-path="url(#clip0_4324_3576)">
<path d="M20.5266 3.73364H14.4398C13.0969 3.73364 12.007 4.82349 12.007 6.16646C12.007 4.82349 10.9172 3.73364 9.57422 3.73364H3.48516C3.2625 3.73364 3.08203 3.91411 3.08203 4.13677V18.4219C3.08203 18.6446 3.2625 18.825 3.48516 18.825H9.57188C10.4672 18.825 11.25 19.3102 11.6719 20.0297C11.8148 20.2758 12.1922 20.2758 12.3375 20.0297C12.7594 19.3079 13.5422 18.825 14.4375 18.825H20.5242C20.7469 18.825 20.9273 18.6446 20.9273 18.4219V4.13677C20.9273 3.91411 20.7492 3.73364 20.5266 3.73364ZM7.72734 9.94692C7.72734 10.1555 7.55859 10.3243 7.35 10.3243H5.10938C4.90078 10.3243 4.73203 10.1555 4.73203 9.94692V9.05395C4.73203 8.84536 4.90078 8.67661 5.10938 8.67661H7.35C7.55859 8.67661 7.72734 8.84536 7.72734 9.05395V9.94692ZM9.32813 6.65161C9.32813 6.8602 9.15938 7.02895 8.95078 7.02895H5.10938C4.90078 7.02895 4.73203 6.8602 4.73203 6.65161V5.75864C4.73203 5.55005 4.90078 5.3813 5.10938 5.3813H8.95078C9.15938 5.3813 9.32813 5.55005 9.32813 5.75864V6.65161Z" fill="#FD8103"/>
</g>
<defs>
<clipPath id="clip0_4324_3576">
<rect width="24" height="24" fill="white"/>
</clipPath>
</defs>
</svg>
